<svg width="96" height="96" viewBox="0 0 96 96" fill="none" xmlns="http://www.w3.org/2000/svg">
<g id="Group">
<path id="Vector" d="M64 27.792V91.0187C64 93.2107 64 94.3093 63.296 94.6827C62.592 95.0613 61.68 94.4533 59.856 93.2373L49.4773 86.32C48.7627 85.84 48.4053 85.6053 48 85.6053C47.5947 85.6053 47.2373 85.84 46.5227 86.32L33.4773 95.0133C32.7627 95.4933 32.4053 95.728 32 95.728C31.5947 95.728 31.2373 95.4933 30.5227 95.0133L17.4773 86.32C16.7627 85.84 16.4053 85.6053 16 85.6053C15.5947 85.6053 15.2373 85.84 14.5227 86.32L4.144 93.2373C2.32 94.4533 1.408 95.0613 0.704 94.6827C-1.58946e-07 94.3093 0 93.2107 0 91.0187V21.3333C0 11.2747 -3.17891e-07 6.25067 3.12533 3.12533C6.25067 -3.17891e-07 11.2747 0 21.3333 0H80L78.2507 1.168C71.2747 5.81867 67.7867 8.144 65.8933 11.68C64 15.216 64 19.4133 64 27.792Z" fill="white"/>
<path id="Vector_2" d="M64 16C64 11.7565 65.6857 7.68687 68.6863 4.68629C71.6869 1.68571 75.7565 0 80 0C84.2435 0 88.3131 1.68571 91.3137 4.68629C94.3143 7.68687 96 11.7565 96 16V26.6667C96 28.0812 95.4381 29.4377 94.4379 30.4379C93.4377 31.4381 92.0812 32 90.6667 32H66.6667C65.9594 32 65.2811 31.7191 64.781 31.219C64.2809 30.7189 64 30.0406 64 29.3333V16Z" fill="black"/>
<path id="Vector_3" d="M13.3333 34.6667H50.6667M13.3333 50.6667H34.6667M13.3333 66.6667H45.3333" stroke="black" stroke-linecap="round"/>
</g>
</svg>
