<svg width="128" height="128" viewBox="0 0 128 128" fill="none" xmlns="http://www.w3.org/2000/svg">
<g id="Rock icon">
<path id="Vector" d="M8.93001 90.74C8.40001 89.49 7.89001 88.24 7.39001 86.99C3.62001 77.48 8.35001 68.9 12.57 60.5L18.69 48.34C19.92 45.89 21.81 43.83 24.13 42.39L41.73 31.47L59.12 13.49C60.1995 12.3698 61.5771 11.5821 63.09 11.22L74.93 8.36C80.66 6.99 83.12 7.21 84.97 9.84C91.38 18.94 95.67 26.43 101.38 35.5C104.49 40.44 111.67 51.79 112.12 52.54C113.5 54.86 112.94 56.8 112.89 59.46C112.77 65.59 113.85 71.75 116.09 77.46C116.76 79.16 117.53 80.84 117.88 82.63C118.2 84.24 117.77 94.47 117.44 97.93C117.17 100.74 110.53 111.23 108.15 112.5C105.53 113.9 86.11 121.04 81.82 122.26C77.53 123.48 58.93 119.23 49.27 117.75C43.3 116.84 37.32 115.92 31.35 115.01C26.17 114.22 21.02 114.82 18.12 109.59C14.71 103.47 11.65 97.18 8.93001 90.74Z" fill="url(#paint0_linear_15_9)"/>
<path id="Vector_2" d="M31.34 115C37.31 115.91 43.29 116.83 49.26 117.74C52.37 118.22 56.41 118.98 60.6 119.76C57.78 116.42 53.57 112.46 50.75 109.12C50.14 108.4 49.52 107.65 49.3 106.73C49.07 105.75 49.33 104.74 49.6 103.77C50.46 100.59 50.68 97.14 51.54 93.96C46.21 95.2 33.93 97.56 32.92 97.27C31.8 96.95 30.89 96.14 30.02 95.35C23.69 89.57 18.74 83.74 13.9 76.69C13.33 75.86 12.75 75 12.54 74.01C12.34 73.08 12.49 72.12 12.64 71.19C13 68.87 13.8 62.44 14.44 56.77L12.56 60.5C8.34999 68.9 3.61998 77.48 7.39998 86.99C7.89998 88.25 8.40998 89.5 8.93998 90.74C11.6526 97.1784 14.7138 103.464 18.11 109.57C21 114.81 26.16 114.21 31.34 115Z" fill="url(#paint1_linear_15_9)"/>
<path id="Vector_3" d="M85.05 9.95C83.82 8.5 81.42 8.78 78.9 11.08L69.84 20.14C69.28 20.7 68.98 21.47 69.03 22.26L70 40.76C70.03 41.38 70.26 41.96 70.66 42.43C73.88 46.19 85.26 64.26 88.56 64.26C91.85 64.26 97.6 51.44 100.53 51.51C101.03 51.52 103.64 51.68 106.19 52.46C108.57 53.18 109.5 49.91 109.01 47.59C106.55 43.69 103.24 38.46 101.38 35.5C95.69 26.47 91.41 19 85.05 9.95Z" fill="url(#paint2_linear_15_9)"/>
<path id="Vector_4" d="M42.89 46.37C46.22 45.87 57.33 43.98 59.42 43.16C63.5 41.55 67.1 34.69 69.48 31C69.48 31 70.3 43.03 69.48 47.73C68.91 51 66.76 68.1 64.6 72.2L51.54 93.96L32.35 74.77C30.72 73.14 29.68 72.28 29.09 69.97C27.74 64.69 25.29 56.9 25.28 52.31C25.27 47.72 37.64 47.15 42.89 46.37Z" fill="url(#paint3_linear_15_9)"/>
<path id="Vector_5" d="M67.16 20.74C65.88 19.21 65.52 17.04 65.96 15.1C66.33 13.48 69.69 10.35 70.78 9.36L63.09 11.22C61.5787 11.5862 60.2022 12.3733 59.12 13.49L41.73 31.47C41.73 31.47 58.57 24.45 67.16 20.74Z" fill="url(#paint4_linear_15_9)"/>
<path id="Vector_6" d="M116.08 77.46C114.401 73.1733 113.37 68.6605 113.02 64.07C107.28 68 104.07 73.1 94.83 74.35C92.38 74.68 88.59 75.14 86.2 75.77C83.24 76.55 80.5 78.74 76.06 79.15C72.9 79.45 64.93 79.22 66.13 81C67.33 82.78 74.48 86.37 76.26 87.82C78.79 89.85 80.99 92.24 83.1 94.7C84.2 95.99 85.85 99.12 87.77 99.97C88.26 100.19 88.78 100.25 89.3 100.09C90.21 99.82 90.94 99.16 91.65 98.53C98.5341 92.4311 106.273 87.371 114.62 83.51C115.51 83.1 116.47 82.64 116.91 81.76C117.1 81.37 117.18 80.84 117.19 80.27C116.84 79.33 116.45 78.4 116.08 77.46Z" fill="url(#paint5_linear_15_9)"/>
<path id="Vector_7" d="M117.87 82.63C117.74 81.98 117.55 81.34 117.33 80.71C117.16 81.3 116.79 81.95 115.99 82.56C113.69 84.32 104.82 87.03 95.06 95.58C88.69 101.16 88.68 101.91 87.31 108.06C85.07 118.13 81.51 121.79 80.83 122.41C81.2 122.37 81.53 122.32 81.8 122.24C86.1 121.03 105.51 113.88 108.13 112.48C110.51 111.21 117.15 100.72 117.42 97.91C117.76 94.47 118.19 84.24 117.87 82.63Z" fill="url(#paint6_linear_15_9)"/>
</g>
<defs>
<linearGradient id="paint0_linear_15_9" x1="87.616" y1="21.04" x2="41.548" y2="138.084" gradientUnits="userSpaceOnUse">
<stop stop-color="#9E958E"/>
<stop offset="0.46" stop-color="#8E8884"/>
<stop offset="1" stop-color="#757575"/>
</linearGradient>
<linearGradient id="paint1_linear_15_9" x1="8.85899" y1="120.137" x2="47.171" y2="77.536" gradientUnits="userSpaceOnUse">
<stop stop-color="#37474F"/>
<stop offset="0.612" stop-color="#42565F" stop-opacity="0.192"/>
<stop offset="0.757" stop-color="#455A64" stop-opacity="0"/>
</linearGradient>
<linearGradient id="paint2_linear_15_9" x1="99.553" y1="66.702" x2="74.778" y2="11.745" gradientUnits="userSpaceOnUse">
<stop stop-color="#9E958E"/>
<stop offset="0.442" stop-color="#AEA298"/>
<stop offset="1" stop-color="#C9B8A9"/>
</linearGradient>
<linearGradient id="paint3_linear_15_9" x1="37.502" y1="104.545" x2="47.502" y2="50.295" gradientUnits="userSpaceOnUse">
<stop stop-color="#4C5C64"/>
<stop offset="1" stop-color="#455A64" stop-opacity="0"/>
</linearGradient>
<linearGradient id="paint4_linear_15_9" x1="41.732" y1="20.416" x2="70.782" y2="20.416" gradientUnits="userSpaceOnUse">
<stop stop-color="#4C5C64"/>
<stop offset="1" stop-color="#455A64" stop-opacity="0"/>
</linearGradient>
<linearGradient id="paint5_linear_15_9" x1="87.261" y1="76.607" x2="121.616" y2="90.767" gradientUnits="userSpaceOnUse">
<stop stop-color="#9E958E"/>
<stop offset="0.25" stop-color="#AEA298"/>
<stop offset="0.566" stop-color="#C9B8A9"/>
</linearGradient>
<linearGradient id="paint6_linear_15_9" x1="104.646" y1="123.357" x2="97.606" y2="95.587" gradientUnits="userSpaceOnUse">
<stop stop-color="#37474F"/>
<stop offset="0.808" stop-color="#42565F" stop-opacity="0.192"/>
<stop offset="1" stop-color="#455A64" stop-opacity="0"/>
</linearGradient>
</defs>
</svg>
