<svg width="128" height="128" viewBox="0 0 128 128" fill="none" xmlns="http://www.w3.org/2000/svg">
<g id=" Scissors icon">
<path id="Vector" d="M36.61 123.93L85.17 54.6L77.18 38.99C70.49 43.62 55.97 53.67 53.77 55.06C53.18 55.43 52.73 55.96 52.47 56.6C52.47 56.6 35.99 99.57 33.31 106.53C30.4 114.1 30.35 117.17 31.1 119.43C31.75 121.42 36.61 123.93 36.61 123.93Z" fill="#82AEC0"/>
<path id="Vector_2" d="M112.73 5.68C102.48 1.03 89.85 6.77 84.52 18.51C82.39 23.2 82.35 28.62 82.37 30.65C82.4 33.45 78.08 37.52 76.71 38.73C76.47 38.94 76.42 39.29 76.58 39.56L84.98 54.2C85.2 54.58 85.71 54.65 86.03 54.35L87.71 52.75C92.36 49.16 96.67 49.38 98.34 49.62C107.42 50.91 117.13 45.27 121.63 35.36C126.97 23.62 122.98 10.33 112.73 5.68ZM97.29 39.68C91.14 36.89 88.75 28.92 91.94 21.88C95.14 14.84 102.71 11.39 108.86 14.18C115.01 16.97 117.4 24.94 114.21 31.98C111.02 39.03 103.44 42.48 97.29 39.68Z" fill="#DE3E31"/>
<path id="Vector_3" d="M64 67.42C66.5129 67.42 68.55 65.3829 68.55 62.87C68.55 60.3571 66.5129 58.32 64 58.32C61.4871 58.32 59.45 60.3571 59.45 62.87C59.45 65.3829 61.4871 67.42 64 67.42Z" fill="#A8E3F0"/>
<path id="Vector_4" d="M49.17 65.19L60.65 89.61L64.47 84.15L49.9 63.29L49.17 65.19ZM77.82 65.09L80.43 61.37L78.54 56.19C77.86 54.19 77.57 53.18 76.27 52.56L64.74 47.58L63.5 48.44L77.82 65.09Z" fill="#2F7889"/>
<path id="Vector_5" d="M91.39 123.93L42.83 54.6L50.55 38.8C57.11 43.34 72 53.65 74.23 55.05C74.82 55.42 75.27 55.95 75.53 56.59C75.53 56.59 92.01 99.56 94.69 106.52C97.6 114.09 97.65 117.16 96.9 119.42C96.25 121.42 91.39 123.93 91.39 123.93Z" fill="#82AEC0"/>
<path id="Vector_6" d="M60.05 76.15L57.03 74.86L91.39 123.92C91.39 123.92 95.09 119.97 90.37 112.69L69.41 83.96C67.1213 80.497 63.8669 77.7815 60.05 76.15Z" fill="#B9E4EA"/>
<path id="Vector_7" d="M64 67.42C66.5129 67.42 68.55 65.3829 68.55 62.87C68.55 60.3571 66.5129 58.32 64 58.32C61.4871 58.32 59.45 60.3571 59.45 62.87C59.45 65.3829 61.4871 67.42 64 67.42Z" fill="#B9E4EA"/>
<path id="Vector_8" d="M6.36 35.36C10.86 45.28 20.57 50.91 29.65 49.62C31.32 49.38 35.62 49.16 40.28 52.75L41.96 54.35C42.28 54.65 42.79 54.58 43.01 54.2L51.41 39.56C51.57 39.28 51.52 38.94 51.28 38.73C49.92 37.52 45.59 33.45 45.62 30.65C45.64 28.62 45.6 23.2 43.47 18.51C38.15 6.77 25.52 1.03 15.27 5.68C5.02 10.33 1.03 23.62 6.36 35.36ZM13.79 31.99C10.59 24.95 12.99 16.98 19.14 14.19C25.29 11.4 32.86 14.84 36.06 21.89C39.26 28.93 36.86 36.9 30.71 39.69C24.56 42.48 16.98 39.03 13.79 31.99Z" fill="#DE3E31"/>
<path id="Vector_9" d="M92.67 10.75C92.07 11.46 91.72 12.51 92.29 13.4C92.92 14.39 95.74 14.5 101.66 10.38C103.31 9.23 102.89 7.55 100.86 7.28C97.93 6.83 94.47 8.45 92.67 10.75ZM17.71 11.7C15.21 13.13 14.15 13.97 12.13 17.32C11.5 18.36 10.07 21.05 8.64 19.83C7.7 19.03 7.77 17.18 8.36 15.5C9.57 12.09 11.65 9.59 14.57 8.11C15.62 7.58 18.2 6.75 19.63 7.31C22.43 8.4 19.91 10.45 17.71 11.7Z" fill="#FF7555"/>
</g>
</svg>
